<?xml version="1.0"?>
<svg xmlns="http://www.w3.org/2000/svg" xmlns:xlink="http://www.w3.org/1999/xlink" version="1.1" id="Capa_1" x="0px" y="0px" width="512px" height="512px" viewBox="0 0 401.389 401.389" style="enable-background:new 0 0 401.389 401.389;" xml:space="preserve"><g><g>
	<path d="M201.619,401.389c-3.351-14.795-15.507-54.322-32.439-65.275c-22.566,11.176-38.949,13.09-48.717,5.652   c-8.373-6.365-9.412-18.007-7.76-26.041c0.228-1.074,0.467-2.008,0.73-2.802c-7.128-4.251-8.261-9.646-8.226-12.774   c0.011-1.495,0.297-2.967,0.8-4.298c-1.851-1.214-3.048-2.686-3.812-3.958c-2.213-3.726-2.236-8.186-1.734-11.643   c-3.375-0.385-7.572-1.447-10.574-4.134c-2.353-2.102-3.667-4.928-3.789-8.162c-0.169-4.344,2.394-10.393,5.634-18.041   c4.589-10.86,10.889-25.725,6.469-32.369c-8.466-12.693,1.098-34.43,5.249-42.61c-8.968-8.787-37.355-41.862-24.598-98.123   l4.998-22.128l3.217,22.455c2.762,19.366,6.411,31.137,9.698,38.26c-3.527-24.808-2.785-72.427,45.319-102.595L162.495,0   l-14.9,18.929c-10.463,13.306-15.005,25.614-16.512,35.919c2.978-13.271,8.513-26.017,18.83-28.603l8.577-2.149l-3.777,8.011   c-3.468,7.339-3.457,14.047,0.047,20.481c14.059,25.9,77.115,38.961,99.676,42.867c-3.41-5.226-9.704-12.541-20.587-18.45   l-13.732-7.462l15.624-0.403c16.967-0.362,30.897,11.286,40.263,22.286c-1.495-2.855-3.421-5.657-5.955-8.121l-15.986-15.577   l20.552,8.729c7.229,3.071,14.013,13.931,18.964,23.985c-0.176-3.79-0.468-7.818-0.958-11.8l-1.682-13.259l8.934,9.943   c6.025,6.714,8.279,25.987,9.131,39.556c2.137-3.515,4.181-7.292,5.22-10.293l3.001-8.624l4.578,7.905   c3.129,5.418-0.141,14.363-3.912,24.715c-1.95,5.36-5.231,14.316-4.391,16.5c23.564,27.12,8.326,58.292-5.092,85.792   c-8.886,18.193-17.281,35.381-14.433,49.604c5.991,26.11,22.958,58.841,23.133,59.179l-7.427,3.854   c-0.713-1.365-17.633-34.015-23.892-61.281c-3.433-17.095,5.559-35.521,15.087-55.021c12.903-26.403,26.238-53.709,6.411-76.597   c-3.982-3.457-2.405-10.299,0.665-19.109l-6.69,9.149l-0.141-12.594c-0.012-1.897-0.069-3.924-0.151-6.014l-0.666,9.114   l-6.668-19.04c-1.132-3.264-2.627-7.076-4.355-11.023c0,0.525,0,0.858,0,0.958l-0.502,15.869l-7.392-14.065   c-0.128-0.263-9.727-18.269-24.288-28.843c6.562,7.713,8.699,14.182,8.828,14.614l1.996,6.299l-6.551-0.881   c-3.865-0.514-94.847-13.224-113.98-48.454c-2.4-4.461-3.62-9.062-3.643-13.796c-5.529,11.286-7.754,31.219-7.754,44.863v15.256   l-7.782-13.119c-0.684-1.156-13.832-24.102,0.204-55.513c-38.453,38.908-21.071,92.144-20.207,94.666l2.031,6.014l-6.323-0.502   c-2.312-0.193-12.243-2.645-19.933-30.291c-0.192,43.118,26.028,65.538,27.342,66.642l2.68,2.236l-1.71,3.048   c-4.041,7.152-13.201,27.716-7.146,36.8c6.93,10.393-0.088,26.951-5.716,40.263c-2.382,5.628-5.074,11.981-4.986,14.444   c0.035,0.98,0.333,1.646,1.004,2.254c2.161,1.938,7.234,2.359,9.961,2.195l6.428-0.443l-2.195,6.072   c-0.613,1.658-1.973,7.076-0.251,9.925c0.438,0.747,1.314,1.752,3.895,2.126l16.202,2.312l-15.314,5.745   c0.047,0.07-0.823,1.425-0.561,3.105c0.368,2.383,2.948,4.637,7.257,6.354l12.016,4.811l-11.286,2.826   c-1.308,3.082-2.61,13.102,2.341,18.729c6.364,7.24,21.79,5.114,43.48-5.979l1.909-0.981l1.915,0.981   c24.965,12.892,38.021,69.502,38.558,71.907L201.619,401.389z" data-original="#000000" class="active-path" data-old_color="#bc9355" fill="#bc9355"/>
</g></g> </svg>
